<?xml version="1.0" encoding="utf-8"?>
<!-- Generator: Adobe Illustrator 15.1.0, SVG Export Plug-In . SVG Version: 6.00 Build 0)  -->
<!DOCTYPE svg PUBLIC "-//W3C//DTD SVG 1.1//EN" "http://www.w3.org/Graphics/SVG/1.1/DTD/svg11.dtd">
<svg version="1.1" id="Layer_1" xmlns="https://www.w3.org/2000/svg" xmlns:xlink="https://www.w3.org/1999/xlink" x="0px" y="0px"
	 width="200px" height="200px" viewBox="0 0 200 200" enable-background="new 0 0 200 200" xml:space="preserve">
<path d="M100.001,0C44.771,0,0,44.771,0,100.001C0,155.229,44.771,200,100.001,200C155.229,200,200,155.229,200,100.001
	C200,44.771,155.229,0,100.001,0z M127.975,154.898c-2.303,1.5-4.852,2.25-7.65,2.25c-0.9,0-1.801-0.1-2.699-0.299
	c-10.002-2.701-20.002-5.4-30-8.1c-9.101-2.799-16.151-6.65-21.15-11.551c-6-5.898-11.1-15-15.3-27.3c6.199-6.099,12-9.15,17.4-9.15
	c1.5,0,3.449,0.45,5.85,1.35c6.099,2.201,10.699,5.1,13.8,8.699c1.599,1.901,3.45,5.25,5.55,10.051c2,4.401,4.238,7.701,6.639,9.9
	L103,132.1v0.449l0.674-0.549h0.6c0.398,0,0.75-0.525,1.051-1.826c1.299-4.199,2.6-8.285,3.9-12.387
	c0.998-3.799,1.5-8.317,1.5-13.619c0-3.698-0.201-9.158-0.6-16.409c-0.402-7.25-0.602-12.667-0.602-16.267
	c0-10.1,0.65-17.146,1.951-21.146c2.4-7.699,7.398-11.548,15-11.548c4.5,0,8.648,1.351,12.449,4.051
	c1.5,1.102,4.65,4.201,9.451,9.301c-0.803,4.901-1.201,10.402-1.201,16.5c0,4.301,0.275,10.75,0.826,19.35
	c0.547,8.602,0.824,15.051,0.824,19.35C148.824,129.549,141.873,145.4,127.975,154.898z"/>
</svg>
